<?xml version="1.0" standalone="no"?>
<!DOCTYPE svg PUBLIC "-//W3C//DTD SVG 20010904//EN"
 "http://www.w3.org/TR/2001/REC-SVG-20010904/DTD/svg10.dtd">
<svg version="1.0" xmlns="http://www.w3.org/2000/svg"
 width="16.000000pt" height="16.000000pt" viewBox="0 0 16.000000 16.000000"
 preserveAspectRatio="xMidYMid meet">
<metadata>
Created by potrace 1.11, written by Peter Selinger 2001-2013
</metadata>
<g transform="translate(0.000000,16.000000) scale(0.008333,-0.008333)"
fill="#000000" stroke="none">
<path d="M829 1538 c-1 -7 -3 -40 -4 -73 -3 -69 -12 -111 -31 -140 -13 -18
-14 -16 -15 20 -1 22 -1 55 -1 72 0 18 -4 31 -10 30 -6 -1 -14 9 -18 23 -8 35
-22 10 -20 -38 3 -55 1 -59 -15 -32 -16 28 -17 25 -17 -48 0 -18 -5 -35 -9
-38 -5 -3 -7 -10 -4 -15 4 -5 1 -9 -5 -9 -7 0 -10 -6 -7 -14 8 -20 -17 -38
-44 -34 -21 3 -23 8 -23 69 1 63 -1 67 -22 67 -16 0 -31 -13 -49 -39 -14 -22
-23 -39 -20 -39 2 0 -4 -20 -15 -44 -10 -24 -18 -64 -18 -89 0 -67 -7 -80 -54
-99 -23 -10 -42 -17 -42 -15 -7 19 -27 41 -37 39 -7 -2 -15 2 -19 8 -11 18
-43 19 -62 2 -16 -13 -18 -13 -24 4 -13 40 -14 45 -6 40 8 -5 7 102 -1 111 -4
3 -2 13 3 23 5 10 6 20 3 24 -6 6 -8 78 -3 101 1 6 2 24 1 40 l-2 30 -27 -32
c-29 -34 -62 -113 -62 -149 0 -11 -3 -24 -7 -28 -4 -3 -8 -13 -10 -21 -6 -30
-12 -50 -14 -50 -1 0 -3 -10 -5 -22 -7 -43 -10 -58 -18 -88 -4 -16 -10 -37
-13 -45 -4 -8 -6 -18 -5 -22 1 -4 -3 -31 -9 -60 -6 -29 -12 -73 -13 -97 -1
-33 -8 -48 -29 -67 -24 -21 -27 -30 -27 -86 0 -35 5 -70 10 -78 5 -8 10 -10
10 -5 0 6 4 4 8 -3 5 -7 7 -32 6 -57 -2 -44 0 -47 77 -125 43 -44 85 -80 91
-80 25 0 39 17 38 46 0 16 0 54 1 84 0 30 -1 62 -3 70 -2 11 8 15 41 17 25 2
48 7 51 13 4 6 14 3 26 -7 22 -21 73 -24 92 -6 20 19 32 16 32 -9 0 -37 50
-128 71 -128 11 0 19 -6 19 -14 0 -21 25 -26 48 -10 19 13 21 12 24 -8 3 -20
9 -23 51 -23 46 -1 70 6 68 19 -3 24 0 27 15 15 38 -31 48 -19 47 58 0 14 5
19 14 16 7 -3 13 -10 12 -17 -4 -33 2 -34 116 -34 65 0 112 4 109 9 -7 12 6
52 14 44 4 -4 8 -20 8 -36 1 -16 2 -34 3 -40 1 -8 14 -10 36 -6 29 5 35 3 35
-12 0 -15 9 -17 52 -17 46 1 53 4 58 25 5 21 7 22 18 8 16 -19 49 -11 55 14 3
12 11 17 20 13 12 -4 23 10 42 52 15 32 27 70 27 85 1 27 1 27 18 7 12 -16 27
-21 55 -20 21 1 42 7 46 13 4 7 15 8 30 3 13 -4 39 -6 57 -5 31 2 33 0 32 -31
0 -31 0 -43 0 -85 0 -10 0 -27 0 -38 0 -41 11 -65 29 -65 10 0 54 35 97 77 76
75 79 80 80 125 2 66 3 70 13 64 14 -9 21 20 21 82 0 48 -4 62 -27 86 -26 29
-33 57 -37 164 0 17 -4 32 -8 32 -4 0 -10 25 -13 55 -4 30 -11 58 -16 60 -4 3
-6 12 -2 20 3 8 1 15 -4 15 -5 0 -9 10 -8 23 1 12 -2 28 -8 35 -5 6 -6 12 -2
12 4 0 2 6 -4 14 -6 8 -11 18 -10 22 7 28 -39 155 -69 194 l-27 35 -6 -35 c-3
-19 -2 -45 2 -56 4 -12 5 -25 2 -28 -8 -7 -6 -143 2 -156 3 -5 2 -10 -3 -10
-5 0 -7 -11 -4 -25 2 -13 1 -36 -2 -50 -6 -24 -7 -25 -31 -9 -29 19 -35 19
-45 4 -4 -6 -15 -13 -25 -14 -15 -2 -33 -22 -41 -44 -2 -7 -64 21 -64 30 0 5
-4 6 -10 3 -11 -7 -24 39 -17 60 4 8 2 17 -2 20 -5 3 -7 13 -4 24 3 10 -2 32
-11 49 -9 17 -17 39 -19 49 -1 10 -13 35 -26 56 -17 28 -29 37 -45 35 -19 -3
-21 -9 -21 -67 0 -56 -3 -64 -19 -67 -22 -3 -61 14 -52 23 3 3 -1 18 -9 32 -7
15 -12 46 -11 69 2 30 -1 42 -11 42 -7 0 -13 -10 -13 -22 0 -12 -3 -19 -6 -16
-3 3 -5 29 -6 57 0 28 -4 51 -9 51 -8 0 -13 -15 -10 -32 0 -5 -5 -7 -12 -5 -8
1 -12 -16 -14 -58 -2 -83 -1 -82 -17 -60 -20 30 -29 73 -29 143 1 34 -4 62 -9
62 -5 0 -6 5 -3 10 3 6 0 10 -8 10 -10 0 -14 -15 -14 -54 0 -73 -8 -82 -45
-51 -29 25 -98 36 -98 16 0 -5 -9 -13 -20 -16 -11 -3 -20 -14 -20 -23 -1 -42
-23 23 -24 71 0 30 -6 52 -13 55 -7 2 -14 -2 -14 -10z"/>
</g>
</svg>
